{"glyphs":{":":{"x_min":0,"x_max":269,"ha":269,"o":"m 203 257 q 174 230 133 230 q 94 230 65 258 q 36 286 36 326 q 36 367 64 396 q 93 426 134 426 q 175 426 204 397 q 233 368 233 327 q 233 286 203 257 z m 203 16 q 173 -12 133 -12 q 93 -12 64 16 q 36 45 36 84 q 36 126 64 156 q 93 185 134 185 q 175 185 204 156 q 233 127 233 86 q 233 45 203 16 z"},"$":{"x_min":0,"x_max":612,"ha":612,"o":"m 585 374 q 581 413 553 439 q 525 465 486 465 q 444 465 416 440 q 387 414 387 374 q 387 337 413 311 q 435 289 460 282 q 484 275 530 275 q 540 276 553 267 q 566 258 574 234 q 582 211 582 171 q 582 144 581 130 q 580 117 575 86 q 570 55 556 37 q 542 19 527 10 q 512 0 498 0 l 361 0 l 361 -65 q 361 -88 344 -104 q 327 -120 303 -120 q 280 -120 264 -104 q 248 -88 248 -64 l 248 0 l 106 0 q 75 0 46 32 q 35 44 28 66 q 21 87 21 118 q 21 125 21 133 q 23 145 24 156 q 26 167 26 169 q 27 176 31 187 q 31 154 57 123 q 89 87 135 87 q 176 87 204 114 q 231 142 231 181 q 231 221 202 250 q 165 287 101 287 q 93 287 85 287 q 73 285 67 285 q 57 288 51 292 q 38 300 32 315 q 27 330 27 373 q 27 463 40 498 q 54 534 66 544 q 78 554 111 554 l 248 554 l 248 622 q 248 646 264 662 q 280 678 305 678 q 329 678 346 662 q 362 645 362 622 l 362 554 l 507 554 q 547 554 568 518 q 590 481 590 406 z"},"?":{"x_min":0,"x_max":466,"ha":466,"o":"m 431 429 l 429 418 l 428 412 q 423 385 408 350 q 394 315 350 225 l 337 199 l 131 200 l 157 256 l 207 363 q 212 373 212 389 q 212 415 198 438 q 183 460 157 472 q 142 478 126 478 q 98 478 74 462 q 50 445 40 414 q 37 407 35 393 l 30 457 q 30 613 44 662 q 57 710 103 718 l 119 720 l 376 720 q 383 720 392 716 q 401 711 413 699 q 427 688 430 661 q 433 634 433 550 l 433 464 z m 336 0 l 119 0 l 113 0 l 105 1 q 91 3 86 17 q 82 31 82 74 q 82 118 89 131 q 96 144 121 146 l 131 147 l 331 147 l 342 146 q 371 146 378 133 q 384 120 384 72 q 384 21 376 10 q 369 0 336 0 z"},"a":{"x_min":0,"x_max":486,"ha":486,"o":"m 460 57 l 457 0 l 97 0 q 57 0 40 22 q 22 44 22 100 q 22 114 22 128 q 22 143 25 163 l 30 204 l 105 204 q 134 204 157 225 q 180 246 180 278 q 180 309 159 330 q 138 351 108 351 q 85 351 66 338 q 46 326 37 303 q 30 289 30 272 l 26 299 q 25 307 25 315 q 25 323 25 327 q 25 374 44 396 q 62 418 97 418 l 382 418 q 433 418 448 386 q 464 355 464 243 q 464 233 462 176 q 460 119 460 57 z m 292 189 q 283 199 268 205 q 254 211 240 211 q 211 211 189 188 q 167 165 167 136 q 167 104 189 82 q 199 71 212 65 q 226 59 241 59 q 271 59 292 82 q 314 104 314 135 q 314 167 292 189 z"},"L":{"x_min":0,"x_max":511,"ha":511,"o":"m 439 0 l 27 0 q 27 180 28 360 q 29 540 30 720 l 314 720 l 314 657 q 314 640 314 628 q 314 617 314 610 q 314 585 314 574 q 314 555 314 547 q 314 532 314 526 q 314 515 314 509 q 314 500 314 496 q 314 476 314 458 q 313 441 313 425 q 311 249 311 213 q 311 196 312 182 q 312 167 322 142 q 331 116 356 98 q 381 81 409 81 q 439 81 463 98 q 487 116 501 145 l 511 171 l 515 148 q 518 127 518 108 q 518 56 496 28 q 474 0 439 0 z"},"3":{"x_min":0,"x_max":474,"ha":474,"o":"m 427 233 l 411 219 l 404 215 l 398 212 l 404 210 l 411 207 q 452 184 452 141 q 452 84 446 57 q 440 30 423 15 q 406 0 385 0 l 84 0 q 55 0 38 22 q 20 45 20 89 q 20 103 21 110 l 25 135 q 25 115 36 98 q 41 88 52 79 q 62 70 74 66 q 87 61 89 61 q 94 61 100 61 q 149 61 168 106 q 174 121 174 137 q 174 154 166 170 q 154 198 126 209 q 149 216 164 236 q 179 256 179 280 q 179 285 177 295 q 171 321 150 338 q 128 356 100 356 q 93 356 80 354 q 66 351 49 334 q 32 316 29 293 l 22 346 q 22 464 34 505 q 45 546 80 553 l 93 554 l 380 554 q 421 554 438 522 q 454 491 454 399 q 454 311 450 282 q 445 252 427 233 z"},";":{"x_min":0,"x_max":270,"ha":270,"o":"m 203 257 q 174 230 133 230 q 94 230 65 258 q 36 286 36 326 q 36 367 64 396 q 93 426 134 426 q 175 426 204 397 q 233 368 233 327 q 233 286 203 257 z m 204 -77 l 196 -82 l 125 -82 l 116 -78 q 105 -70 105 -62 l 105 4 q 89 8 76 20 q 39 51 39 97 q 39 129 60 156 q 88 193 136 193 q 154 193 169 188 q 184 183 197 170 q 234 140 234 71 q 234 -15 227 -42 q 220 -68 204 -77 z"},"J":{"x_min":0,"x_max":398,"ha":398,"o":"m 351 31 q 326 0 286 0 l 93 0 q 67 0 46 28 q 25 56 25 99 q 26 109 26 114 l 32 142 q 41 122 61 105 q 72 95 88 88 q 105 82 125 82 q 164 82 193 109 q 222 136 222 178 q 222 220 194 250 q 165 279 124 279 q 112 279 95 274 l 69 262 q 47 249 33 225 q 26 312 26 411 q 26 482 28 592 q 31 703 31 720 l 369 720 l 370 681 q 370 562 370 440 q 371 319 372 195 q 372 100 368 74 q 365 49 351 31 z"},"V":{"x_min":0,"x_max":625,"ha":625,"o":"m 622 615 q 516 205 466 102 q 416 0 323 0 l 63 0 q 39 0 32 34 q 25 68 25 200 q 25 261 26 420 q 27 579 27 628 l 30 720 l 306 720 q 269 691 269 643 q 269 603 298 573 q 327 543 367 543 q 406 543 434 572 q 463 602 463 642 q 463 691 423 720 l 647 720 z"},"7":{"x_min":0,"x_max":482,"ha":482,"o":"m 442 293 q 437 271 421 240 q 405 210 353 125 l 278 0 l 25 0 l 115 133 q 156 193 172 226 q 189 260 189 282 q 189 299 178 318 q 155 354 115 354 q 102 354 88 348 q 62 338 51 317 q 40 296 40 279 l 35 331 q 35 475 52 514 q 68 554 130 554 l 389 554 q 424 554 442 530 q 461 505 461 443 q 461 394 446 311 z"},"S":{"x_min":0,"x_max":686,"ha":686,"o":"m 551 0 l 112 0 q 89 0 68 13 q 47 26 36 46 q 26 66 26 100 q 26 118 29 141 l 35 171 q 36 162 38 155 q 39 152 45 140 q 58 114 83 98 q 108 82 135 82 q 176 82 204 112 q 232 142 232 185 q 232 203 224 219 q 217 235 203 249 q 170 283 96 283 q 84 282 64 292 q 43 303 34 320 q 26 337 26 370 q 26 588 34 640 q 42 692 85 711 q 106 720 120 720 l 562 720 l 586 717 q 630 704 644 674 q 659 643 659 564 q 659 547 658 525 q 657 503 654 477 l 648 427 q 634 443 613 454 q 607 457 604 458 q 595 462 588 464 q 581 467 574 468 q 567 469 561 469 q 524 469 496 442 q 469 414 469 375 q 469 369 469 366 q 469 347 476 331 q 484 315 499 300 q 518 281 542 274 q 566 267 607 267 q 637 267 650 240 q 664 213 664 145 q 664 67 638 34 q 611 0 551 0 z"},"Z":{"x_min":0,"x_max":674,"ha":674,"o":"m 631 0 l 0 0 l 38 46 q 148 190 187 257 q 226 324 226 364 q 226 377 223 389 q 215 420 190 439 q 165 458 132 458 q 116 458 97 452 q 78 445 63 431 q 48 417 38 395 q 35 387 32 378 q 29 369 29 361 l 23 435 q 23 608 46 664 q 70 720 144 720 l 610 720 q 625 720 639 703 q 646 694 648 668 q 650 641 650 575 l 645 482 q 642 460 630 442 l 480 243 q 470 230 464 212 q 458 194 458 178 q 458 173 458 168 q 460 161 460 158 q 467 124 493 104 q 519 83 552 83 q 575 83 598 95 q 626 111 642 141 q 655 164 655 183 l 659 146 q 659 53 654 26 q 649 0 631 0 z"},"x":{"x_min":0,"x_max":470,"ha":470,"o":"m 434 24 q 420 0 401 0 l 297 0 q 262 0 241 41 l 236 52 l 232 40 q 209 0 173 0 l 77 0 q 23 0 23 84 l 27 110 q 30 102 37 93 q 60 66 93 66 q 123 66 144 87 q 154 97 160 112 q 166 128 166 143 q 166 173 145 196 q 124 218 94 218 q 58 218 35 188 q 27 173 25 167 l 23 204 q 23 349 34 384 q 44 418 93 418 l 380 418 l 396 416 q 430 408 438 374 q 445 340 445 210 l 442 176 q 434 191 421 200 q 408 210 398 213 q 388 216 375 216 q 346 216 325 195 q 304 174 304 141 q 304 111 326 88 q 347 66 376 66 q 402 66 420 82 q 437 97 443 112 l 447 87 q 447 45 434 24 z"},")":{"x_min":0,"x_max":315,"ha":315,"o":"m 155 0 l 0 0 l 20 10 q 78 46 90 98 q 103 151 103 356 q 103 550 88 612 q 74 674 23 707 q 10 716 0 720 l 157 720 q 230 720 254 624 q 277 529 277 216 q 277 82 252 41 q 228 0 155 0 z"},"&":{"x_min":0,"x_max":608,"ha":608,"o":"m 573 55 q 547 0 476 0 l 119 0 q 84 0 61 27 q 38 54 38 101 q 38 176 45 206 q 52 235 75 253 q 82 259 100 267 q 92 268 85 271 q 78 274 70 280 q 47 296 35 326 q 23 357 23 412 q 23 619 39 670 q 55 720 122 720 l 407 720 l 425 718 q 478 708 488 669 q 498 630 498 476 q 498 461 495 442 q 492 424 491 414 q 483 424 478 429 q 473 434 460 443 l 432 458 q 419 463 402 463 q 365 463 336 436 q 308 408 308 366 q 308 334 322 309 q 336 284 363 270 q 338 257 324 232 q 309 206 309 177 q 309 157 317 138 q 325 120 339 105 q 366 77 406 77 q 447 77 476 108 q 504 140 504 185 l 504 291 l 563 291 q 580 291 583 278 q 586 266 586 204 q 586 131 584 101 q 581 71 573 55 z"},"_":{"x_min":0,"x_max":562,"ha":562,"o":"m -7 0 l -7 36 l 569 36 l 569 0 z"},"v":{"x_min":0,"x_max":385,"ha":385,"o":"m 379 334 q 322 102 300 51 q 279 0 241 0 l 66 0 q 33 0 28 24 q 22 47 22 184 l 25 351 l 27 418 l 181 418 l 170 408 q 149 385 149 355 q 149 325 171 303 q 193 281 223 281 q 252 281 273 302 q 297 323 297 353 q 297 397 265 418 l 399 418 z"},"O":{"x_min":0,"x_max":704,"ha":704,"o":"m 632 29 q 597 0 560 0 l 148 0 q 79 0 51 54 q 23 108 23 256 q 23 534 34 610 q 46 686 91 709 q 115 720 134 720 l 582 720 q 617 720 649 688 q 668 670 674 629 q 680 588 680 451 q 680 213 671 134 q 662 54 632 29 z m 401 250 q 373 220 373 179 q 373 141 402 111 q 431 81 471 81 q 509 81 539 110 q 569 139 569 181 q 569 221 540 250 q 511 279 471 279 q 430 279 401 250 z"},"(":{"x_min":0,"x_max":315,"ha":315,"o":"m 158 0 q 85 0 62 94 q 39 188 39 504 q 39 638 64 679 q 88 720 160 720 l 315 720 l 296 710 q 238 675 226 622 q 213 568 213 364 q 213 166 227 106 q 241 46 292 13 q 305 4 315 0 z"},"C":{"x_min":0,"x_max":609,"ha":609,"o":"m 554 55 q 530 0 476 0 l 133 0 q 109 0 88 11 q 50 29 22 95 q -13 178 -13 301 q -13 373 -4 446 q 6 519 30 617 q 41 664 46 676 q 51 687 67 699 q 93 720 122 720 l 554 720 q 554 648 553 500 q 552 352 552 278 l 529 280 q 455 280 420 265 q 385 250 371 213 q 364 196 364 176 q 364 143 384 116 q 404 89 437 81 q 449 78 461 78 q 504 78 532 112 l 548 136 q 559 157 562 173 l 562 90 q 562 79 561 74 q 560 67 554 55 z"},"W":{"x_min":0,"x_max":911,"ha":911,"o":"m 898 591 q 839 379 814 298 q 747 84 719 44 q 687 -2 601 -2 q 557 -2 534 11 q 512 24 496 58 l 492 70 l 488 60 q 475 26 460 13 q 445 0 418 0 l 67 0 q 36 0 29 39 q 22 78 22 241 l 22 384 l 30 720 l 304 720 q 271 694 271 642 q 271 602 300 573 q 328 544 367 544 q 405 544 434 572 q 463 600 463 641 q 463 695 425 720 l 587 720 q 553 692 553 642 q 553 602 584 571 q 611 544 649 544 q 689 544 717 574 q 745 603 745 641 q 745 694 710 720 l 931 720 z"},"A":{"x_min":0,"x_max":624,"ha":624,"o":"m 372 0 q 391 16 400 38 q 408 60 408 78 q 408 117 380 146 q 353 174 312 174 q 270 174 242 146 q 214 118 214 78 q 214 72 216 62 q 217 51 218 47 q 222 38 223 34 q 227 25 233 16 q 236 11 245 0 l -22 0 l 64 349 q 127 605 150 662 q 172 720 209 720 l 449 720 q 566 361 646 0 z"},"f":{"x_min":0,"x_max":312,"ha":312,"o":"m 303 325 q 292 336 276 343 q 260 350 240 350 q 235 350 216 346 q 198 343 182 324 q 167 304 167 278 q 167 269 168 265 q 174 231 204 212 q 219 201 237 198 l 221 193 q 169 169 169 122 l 169 0 l 28 0 l 24 108 q 24 127 24 136 q 24 146 24 150 q 24 173 24 184 q 24 202 24 211 q 24 226 24 233 q 24 245 24 250 q 24 260 24 265 q 24 273 24 277 q 24 295 24 312 q 23 330 23 347 q 23 482 36 518 q 50 554 97 554 l 252 554 q 277 554 295 532 q 305 520 308 504 q 312 488 312 439 q 312 398 310 379 q 309 360 303 325 z"},"Q":{"x_min":0,"x_max":695,"ha":695,"o":"m 638 22 q 628 9 619 4 q 610 -1 591 -3 q 572 -5 562 -32 q 551 -58 551 -112 l 547 -121 l 535 -130 l 513 -130 l 390 -130 l 390 -67 l 389 -55 q 385 -30 368 -15 q 351 0 329 0 l 120 0 q 67 0 46 71 q 22 152 22 370 q 22 592 40 650 q 57 707 128 718 l 150 720 l 543 720 q 616 720 643 676 q 670 632 670 495 q 670 238 664 142 q 658 47 638 22 z m 544 250 q 515 279 475 279 q 434 279 405 250 q 376 221 376 178 q 376 139 405 109 q 434 79 475 79 q 516 79 544 108 q 573 136 573 179 q 573 221 544 250 z"},"w":{"x_min":0,"x_max":578,"ha":578,"o":"m 576 344 q 514 96 494 48 q 474 0 434 0 l 354 0 q 324 0 308 27 l 304 35 l 300 29 q 285 0 257 0 l 56 0 q 49 0 40 6 q 30 12 26 33 q 23 54 23 134 q 23 161 24 232 q 25 303 25 331 l 31 418 l 181 418 q 146 396 146 353 q 146 339 152 326 q 157 313 168 302 q 190 280 221 280 q 251 280 273 302 q 295 324 295 354 q 295 397 263 418 l 384 418 q 352 395 352 353 q 352 325 374 303 q 396 281 425 281 q 452 281 474 301 q 498 325 498 352 q 498 394 468 418 l 592 418 z"},"-":{"x_min":0,"x_max":421,"ha":421,"o":"m 340 179 l 84 179 q 63 179 46 200 q 29 220 29 255 q 29 292 46 314 q 62 336 85 336 l 340 336 q 362 336 377 315 q 392 294 392 255 q 392 219 376 199 q 361 179 340 179 z"},"E":{"x_min":0,"x_max":538,"ha":538,"o":"m 496 366 q 494 383 489 398 l 480 419 q 469 441 448 453 q 427 465 401 465 q 371 465 344 447 q 300 415 300 367 q 300 316 347 284 q 358 276 371 270 l 348 258 l 328 244 q 298 220 298 178 q 298 136 331 104 q 344 91 364 84 q 383 77 400 77 q 452 77 478 120 l 489 144 q 495 159 497 176 q 509 134 509 91 q 509 67 504 24 l 500 0 l 124 0 q 94 0 60 31 q 38 52 33 105 q 28 158 28 352 l 28 685 l 29 720 l 500 720 q 516 637 516 559 q 516 500 507 435 q 505 418 504 406 q 502 393 496 366 z"},"s":{"x_min":0,"x_max":469,"ha":469,"o":"m 448 283 q 445 312 424 332 q 403 352 373 352 q 342 352 320 332 q 297 312 297 283 q 297 255 318 235 q 334 219 352 214 q 370 208 406 208 q 416 208 425 202 q 434 195 440 179 q 445 163 445 131 q 445 104 440 74 q 436 43 426 29 q 405 0 382 0 l 85 0 q 63 0 40 24 q 22 45 22 89 q 22 105 23 114 l 28 142 q 31 114 49 93 q 71 65 108 65 q 138 65 159 87 q 180 109 180 137 q 180 168 158 189 q 141 206 119 211 q 97 216 56 216 q 48 218 44 221 q 35 227 30 240 q 26 252 26 282 q 26 330 28 344 q 29 359 35 374 q 46 403 56 410 q 65 418 89 418 l 389 418 q 451 418 451 307 z"},"l":{"x_min":0,"x_max":240,"ha":240,"o":"m 211 0 l 54 0 q 30 0 26 27 q 22 54 22 200 l 24 436 l 27 554 l 211 554 l 216 421 q 216 324 215 264 q 211 24 211 0 z"},"8":{"x_min":0,"x_max":486,"ha":486,"o":"m 365 0 l 106 0 q 66 0 47 26 q 28 53 28 112 q 28 164 40 188 q 51 212 75 219 l 54 231 q 38 245 34 264 q 30 283 30 340 q 30 371 30 410 q 30 448 31 493 q 31 504 34 512 q 38 520 47 531 q 67 554 107 554 l 370 554 q 407 554 434 517 q 462 480 462 412 q 462 359 443 292 l 431 251 q 427 241 417 231 q 407 221 396 217 q 421 211 432 186 q 444 162 444 111 q 444 53 424 26 q 405 0 365 0 z m 317 207 l 309 213 l 313 216 l 318 219 q 336 229 346 246 q 356 264 356 284 q 356 316 334 338 q 313 359 283 359 q 253 359 231 337 q 209 315 209 283 q 209 258 222 240 q 235 222 258 214 l 244 207 q 209 183 209 141 q 209 111 230 88 q 251 65 281 65 q 314 65 336 87 q 358 109 355 141 q 355 177 317 207 z"},"e":{"x_min":0,"x_max":485,"ha":485,"o":"m 452 214 l 360 214 q 334 214 316 194 q 297 173 297 141 q 297 106 320 84 q 344 61 374 61 q 420 61 442 104 q 450 119 451 134 l 453 105 q 453 53 434 26 q 414 0 378 0 l 88 0 q 65 0 44 24 q 30 38 25 71 q 9 166 9 235 q 9 328 35 377 q 57 418 89 418 l 390 418 l 404 416 q 429 410 441 394 q 453 377 453 343 l 455 297 l 455 289 z m 232 353 q 199 353 177 331 q 155 309 155 276 q 155 246 178 224 q 200 203 231 203 q 263 203 286 224 q 309 247 309 278 q 309 308 286 330 q 264 353 232 353 z"},"b":{"x_min":0,"x_max":463,"ha":463,"o":"m 425 44 q 404 0 376 0 l 27 0 q 27 61 26 100 q 22 254 22 270 q 22 326 26 426 q 29 526 29 554 l 140 554 q 164 554 164 531 l 164 451 q 164 425 184 419 l 191 418 l 380 418 q 398 418 419 399 q 432 386 436 348 q 441 310 441 197 q 441 134 436 97 q 432 60 425 44 z m 343 189 q 322 212 290 212 q 260 212 239 190 q 216 169 216 135 q 216 104 238 82 q 260 60 290 60 q 322 60 343 83 q 365 104 365 136 q 365 167 343 189 z"},"%":{"x_min":0,"x_max":766,"ha":766,"o":"m 669 0 l 511 0 l 498 1 q 483 4 476 9 q 468 14 464 22 l 460 41 q 449 90 444 131 q 438 172 438 205 q 438 272 461 305 q 480 333 511 333 l 679 333 q 707 333 715 307 l 720 279 q 736 184 736 125 q 736 56 718 28 q 700 0 669 0 z m 285 0 q 280 -11 264 -11 q 249 -11 234 0 q 209 18 209 37 q 209 43 212 49 l 462 543 q 474 563 496 563 q 505 563 515 558 q 539 545 539 516 q 539 507 534 495 z m 231 219 l 74 219 q 57 219 44 226 q 31 232 26 242 l 22 263 q 2 360 2 425 q 2 493 24 526 q 43 554 74 554 l 242 554 q 269 554 277 529 l 282 500 q 290 459 294 416 q 298 372 298 344 q 298 275 280 247 q 262 219 231 219 z m 630 125 q 613 125 600 112 q 587 99 587 81 q 587 61 600 48 q 612 34 631 34 q 650 34 664 47 q 678 60 678 80 q 678 99 664 112 q 650 125 630 125 z m 192 347 q 175 347 162 334 q 149 321 149 303 q 149 283 162 270 q 174 256 194 256 q 213 256 227 269 q 241 282 241 302 q 241 322 226 334 q 212 347 192 347 z"},"m":{"x_min":0,"x_max":609,"ha":609,"o":"m 584 84 q 584 68 584 55 q 583 42 579 0 l 480 0 l 498 24 l 506 44 q 510 60 510 67 q 510 97 490 118 q 470 139 438 139 q 405 139 385 117 q 365 95 365 62 q 365 37 387 10 l 396 0 l 271 0 l 283 10 q 306 34 306 67 q 306 98 287 118 q 264 142 232 142 q 199 142 178 120 q 158 97 158 68 q 158 56 163 43 l 174 23 q 179 16 184 11 q 189 6 197 0 l 25 0 q 25 68 26 208 q 27 348 27 418 l 288 418 q 293 418 301 414 q 309 411 320 402 q 332 393 338 378 q 344 393 357 405 q 375 418 390 418 l 531 418 q 564 418 575 386 q 586 354 586 247 q 586 225 585 166 q 584 108 584 84 z"},",":{"x_min":0,"x_max":253,"ha":253,"o":"m 186 -77 l 178 -82 l 108 -82 l 99 -78 q 88 -71 88 -62 l 88 4 q 73 8 58 20 q 22 50 22 96 q 22 129 43 156 q 71 193 119 193 q 136 193 151 188 q 166 182 180 170 q 217 139 217 71 q 217 -15 210 -42 q 203 -68 186 -77 z"},"n":{"x_min":0,"x_max":405,"ha":405,"o":"m 380 93 l 375 0 l 281 0 q 284 3 290 10 q 296 17 301 25 l 309 44 q 312 55 312 65 q 312 96 290 118 q 269 139 237 139 q 203 139 182 116 q 159 93 159 62 q 159 24 192 0 l 27 0 l 27 418 l 321 418 l 349 418 q 364 418 373 384 q 382 350 382 257 q 382 234 381 172 q 380 111 380 93 z"},"h":{"x_min":0,"x_max":406,"ha":406,"o":"m 376 0 l 282 0 q 294 11 301 24 l 309 43 q 312 54 312 64 q 312 94 290 116 q 269 139 237 139 q 204 139 182 117 q 160 95 160 63 q 160 53 162 44 q 164 36 170 24 q 177 11 190 0 l 28 0 q 28 71 26 234 q 24 398 24 410 l 30 554 l 141 554 q 148 554 154 548 q 159 542 159 531 l 159 454 q 159 418 199 418 l 311 418 q 363 418 371 368 q 379 317 379 61 z"},"z":{"x_min":0,"x_max":473,"ha":473,"o":"m 421 0 l 28 0 l 24 29 q 21 53 20 63 q 20 73 20 87 q 20 109 24 118 q 29 126 46 138 l 67 153 l 116 189 q 153 216 167 238 q 181 259 181 284 q 181 311 162 332 q 142 352 115 354 q 85 354 65 341 q 29 318 29 277 q 26 288 25 300 q 24 313 24 329 q 24 336 24 344 q 26 354 26 358 q 34 403 38 410 q 43 418 65 418 l 418 418 q 441 418 441 391 l 442 381 l 444 345 q 444 297 430 279 q 416 261 332 209 q 296 186 296 140 q 296 119 306 99 q 323 62 366 62 q 395 62 418 85 l 433 105 q 443 123 446 141 l 449 114 q 449 40 444 20 q 440 0 421 0 z"},"B":{"x_min":0,"x_max":588,"ha":588,"o":"m 512 296 l 498 286 l 513 281 q 544 268 554 248 q 565 228 565 173 q 565 106 563 80 q 561 53 535 30 q 504 0 465 0 l 25 0 l 25 720 l 428 720 l 441 720 l 463 719 q 523 719 548 673 q 557 657 562 618 q 566 578 566 503 q 566 390 558 358 q 549 326 512 296 z m 431 244 q 401 271 365 271 q 325 271 296 244 q 266 216 266 177 q 266 135 295 105 q 324 75 367 75 q 407 75 436 107 q 461 135 461 173 q 461 215 431 244 z"},"K":{"x_min":0,"x_max":712,"ha":712,"o":"m 418 0 q 397 0 384 10 q 370 20 358 37 q 339 66 322 91 l 311 102 q 307 106 301 106 q 292 106 289 97 q 288 95 287 91 q 285 82 285 67 l 285 0 l 27 0 l 29 720 l 287 720 l 287 644 l 288 632 q 290 624 295 620 q 300 616 307 619 l 315 623 l 345 669 q 353 682 362 692 q 372 701 380 707 q 400 720 413 720 l 723 720 l 697 674 q 614 525 581 461 q 552 404 543 380 q 534 356 529 337 q 524 318 524 303 q 524 266 553 217 q 578 175 655 79 q 669 62 688 40 q 707 19 726 0 z m 446 434 q 417 464 375 464 q 336 464 307 434 q 278 404 278 364 q 278 322 307 293 q 336 264 377 264 q 418 264 446 293 q 475 322 475 363 q 475 403 446 434 z"},"R":{"x_min":0,"x_max":654,"ha":654,"o":"m 435 0 q 418 0 406 13 q 393 26 350 85 l 341 100 l 336 104 q 322 109 319 87 l 320 69 l 320 0 l 33 0 q 33 179 32 359 q 31 539 30 720 l 497 720 q 554 720 581 676 q 612 625 612 509 q 612 478 609 435 q 606 392 601 340 q 596 289 582 264 q 569 238 536 216 l 518 205 q 512 202 512 195 q 512 184 530 159 q 547 134 584 94 l 668 0 z m 337 433 q 309 404 309 361 q 309 321 338 292 q 367 263 408 263 q 449 263 478 292 q 507 321 507 363 q 507 404 478 433 q 449 462 407 462 q 366 462 337 433 z"},"T":{"x_min":0,"x_max":717,"ha":717,"o":"m 692 355 q 690 372 687 380 q 670 432 622 451 q 605 458 586 458 q 555 458 532 440 q 508 421 499 390 q 484 339 484 286 l 484 0 l 228 0 l 228 289 l 228 359 q 228 387 211 411 q 194 435 161 448 q 146 454 127 454 q 98 454 72 436 q 27 405 27 353 l 25 398 q 25 461 24 491 q 23 521 22 548 q 22 647 46 684 q 69 720 131 720 l 587 720 q 645 720 670 680 q 694 640 694 528 l 694 417 z"},"P":{"x_min":0,"x_max":666,"ha":666,"o":"m 623 231 q 593 177 540 177 l 439 177 q 431 177 413 168 q 383 154 372 134 q 361 113 361 67 l 360 21 l 360 0 l 28 0 l 29 720 l 529 720 q 598 720 620 680 q 643 641 643 513 q 643 367 639 310 q 635 253 623 231 z m 387 438 q 359 409 359 364 q 359 324 388 296 q 418 267 458 267 q 498 267 527 296 q 556 325 556 368 q 556 407 528 438 q 501 468 458 468 q 416 468 387 438 z"},"t":{"x_min":0,"x_max":219,"ha":219,"o":"m 221 222 l 211 221 q 179 215 167 191 q 155 167 155 107 l 155 0 l 50 0 l 45 1 q 28 6 25 20 q 22 34 22 107 l 22 155 l 22 265 l 27 554 l 143 554 q 149 554 153 549 q 157 544 157 525 l 157 468 l 157 456 l 158 448 q 161 433 173 426 q 185 419 214 419 q 219 419 222 402 q 225 385 225 338 q 225 321 225 312 q 225 284 225 257 q 222 233 221 222 z"},"M":{"x_min":0,"x_max":887,"ha":887,"o":"m 860 129 q 860 104 856 58 q 853 13 853 0 l 712 0 q 730 13 740 30 l 752 56 q 756 68 756 84 q 756 124 728 152 q 701 181 660 181 q 618 181 590 152 q 561 124 561 83 q 561 75 561 67 q 564 59 565 56 l 577 29 q 589 11 602 0 l 433 0 q 441 7 448 14 q 456 22 462 34 q 469 47 472 58 q 474 70 474 82 q 474 121 446 149 q 418 177 376 177 q 336 177 308 150 q 279 122 279 83 q 279 71 282 58 q 285 46 293 31 q 305 11 317 0 l 32 0 q 32 30 28 89 q 24 148 24 178 q 24 291 26 382 q 33 699 33 720 l 425 720 q 465 720 492 683 l 497 675 q 505 688 510 693 q 513 697 521 702 q 548 720 571 720 l 770 720 q 793 720 814 705 q 843 685 854 641 q 864 597 864 461 q 864 440 862 335 q 860 230 860 129 z"},"g":{"x_min":0,"x_max":456,"ha":456,"o":"m 372 -130 l 99 -130 q 37 -130 24 -72 q 22 -60 22 -55 q 22 -47 26 -31 l 35 -53 q 58 -92 101 -92 q 132 -92 152 -70 q 173 -49 173 -18 q 173 16 144 39 q 115 62 67 62 q 46 62 36 100 q 25 137 25 233 l 28 291 l 30 329 q 30 378 48 398 q 66 418 102 418 l 429 418 l 430 373 q 430 81 428 8 q 426 -64 414 -97 q 403 -130 372 -130 z m 330 195 q 309 216 280 216 q 250 216 229 195 q 218 184 212 171 q 205 158 205 143 q 205 110 226 86 q 247 63 280 63 q 310 63 332 85 q 353 107 353 140 q 353 170 330 195 z"},"j":{"x_min":0,"x_max":261,"ha":261,"o":"m 205 438 q 182 418 152 418 q 122 418 101 438 q 80 458 80 487 q 80 519 100 542 q 121 564 153 564 q 185 564 206 542 q 228 521 228 491 q 228 459 205 438 z m 203 -121 q 189 -130 174 -130 l 79 -130 l 64 -128 q 38 -120 30 -106 q 22 -91 22 -50 l 22 -41 q 29 -58 44 -73 q 56 -83 63 -86 q 80 -95 98 -95 q 124 -95 144 -78 q 172 -56 172 -19 q 172 12 152 33 q 129 58 98 58 q 49 58 28 20 q 28 111 30 254 q 33 396 33 418 l 94 418 q 118 389 159 389 q 187 389 212 403 l 233 419 l 237 324 q 237 265 237 204 q 237 142 238 79 q 238 -40 232 -73 q 225 -106 203 -121 z"},"i":{"x_min":0,"x_max":257,"ha":257,"o":"m 205 438 q 182 418 152 418 q 122 418 101 438 q 80 458 80 487 q 80 519 100 542 q 121 564 153 564 q 185 564 206 542 q 228 521 228 491 q 228 459 205 438 z m 227 0 l 26 0 q 26 105 27 209 q 28 313 29 418 l 78 418 q 84 410 96 401 q 124 382 156 382 q 201 382 228 415 l 228 363 l 228 318 q 228 304 228 294 q 228 284 228 278 q 228 255 228 243 q 228 223 228 213 q 228 195 228 186 q 228 170 228 163 q 228 149 228 142 q 228 130 228 124 q 228 114 228 108 q 228 99 228 94 q 228 86 228 82 q 228 64 228 46 q 227 28 227 10 q 227 3 227 0 z"},"y":{"x_min":0,"x_max":393,"ha":393,"o":"m 363 -130 l 245 -130 l 239 -129 q 225 -127 222 -117 q 218 -107 218 -71 q 218 -50 218 -37 l 217 -28 q 213 -13 204 -6 q 196 0 179 0 l 94 0 q 49 0 37 62 q 25 124 25 341 l 30 418 l 111 418 q 82 397 82 349 q 82 337 89 324 q 96 311 108 301 q 130 281 158 281 q 188 281 210 304 q 231 326 231 353 q 231 395 199 418 l 368 418 l 369 7 z"},".":{"x_min":0,"x_max":241,"ha":241,"o":"m 189 16 q 159 -12 119 -12 q 79 -12 50 16 q 22 45 22 84 q 22 126 50 156 q 79 185 120 185 q 161 185 190 156 q 219 127 219 86 q 219 45 189 16 z"},"p":{"x_min":0,"x_max":468,"ha":468,"o":"m 432 55 q 404 0 358 0 l 205 0 l 197 -1 q 179 -5 170 -20 q 160 -35 160 -69 q 160 -80 160 -91 q 160 -94 164 -118 q 161 -124 159 -126 q 153 -130 144 -130 l 28 -130 q 28 -84 25 9 q 22 102 22 148 q 22 193 25 283 q 28 373 28 418 l 379 418 q 400 418 424 397 q 434 388 438 376 q 443 364 443 338 l 445 272 l 446 217 q 446 82 432 55 z m 341 203 q 320 225 288 225 q 256 225 234 203 q 212 181 212 150 q 212 119 234 96 q 257 72 288 72 q 317 72 340 94 q 364 117 364 149 q 364 180 341 203 z"},"X":{"x_min":0,"x_max":672,"ha":672,"o":"m 540 0 l 114 0 q 78 0 49 32 q 34 48 28 78 q 22 109 22 169 q 22 187 27 209 q 37 190 52 178 q 79 157 112 157 q 152 157 180 186 q 209 214 209 253 q 209 294 180 324 q 152 353 113 353 q 98 353 82 347 q 66 341 52 330 q 38 320 28 303 q 23 348 23 383 q 23 540 31 602 q 39 664 60 687 q 75 704 92 712 q 108 720 122 720 l 543 720 q 560 720 582 709 q 619 692 634 660 q 648 629 648 545 q 648 502 647 464 q 646 426 645 391 q 645 374 642 353 q 639 332 638 321 q 626 333 607 344 l 582 353 q 570 356 557 356 q 518 356 490 326 q 463 297 463 254 q 463 216 492 188 q 520 161 559 161 q 591 161 614 176 q 638 192 648 220 l 649 194 q 649 82 626 41 q 603 0 540 0 z"},"*":{"x_min":0,"x_max":468,"ha":468,"o":"m 372 548 q 348 521 311 521 q 306 521 294 523 q 297 511 295 498 l 293 489 q 298 490 308 490 q 347 490 370 464 q 394 438 394 404 q 394 370 370 345 q 346 320 311 320 q 282 320 259 336 q 236 353 229 381 q 226 393 226 404 q 226 409 226 414 q 228 421 228 424 l 210 421 l 192 421 q 194 409 194 404 q 194 369 169 345 q 144 321 109 321 q 74 321 50 346 q 27 370 27 405 q 27 440 52 464 q 77 488 111 488 q 116 488 128 486 l 126 502 l 127 486 l 127 494 q 126 508 130 521 q 118 519 111 519 q 76 519 51 544 q 26 569 26 605 q 26 640 52 664 q 77 689 112 689 q 147 689 172 664 q 197 639 197 603 q 197 599 195 587 q 201 589 214 589 q 225 589 230 588 q 228 600 228 605 q 228 642 254 665 q 280 688 313 688 q 347 688 371 664 q 395 640 395 606 q 395 573 372 548 z"},"Y":{"x_min":0,"x_max":588,"ha":588,"o":"m 554 0 l 253 0 l 242 1 q 204 9 204 40 l 204 135 q 204 143 200 151 q 195 159 192 162 q 185 168 169 172 l 123 174 q 101 174 79 188 q 45 209 34 254 q 22 298 22 433 q 22 512 26 576 q 29 640 39 720 l 146 720 q 105 696 105 640 q 105 599 134 570 q 160 541 201 541 q 243 541 270 570 q 297 600 297 640 q 297 679 272 708 l 260 720 l 559 720 q 559 553 558 450 q 554 38 554 0 z"},"c":{"x_min":0,"x_max":419,"ha":419,"o":"m 398 246 l 395 216 l 313 216 q 281 216 258 194 q 236 173 236 141 q 236 108 257 84 q 280 61 311 61 q 323 61 338 66 q 353 72 363 82 q 385 102 388 131 q 392 113 392 103 q 392 0 326 0 l 96 0 q 47 0 38 53 q 29 106 29 339 q 29 418 98 418 l 332 418 l 344 416 q 378 407 390 388 q 401 369 401 316 q 401 307 401 302 q 401 284 398 246 z"},"!":{"x_min":0,"x_max":387,"ha":387,"o":"m 327 231 l 326 223 q 320 197 290 197 l 73 196 q 50 196 40 247 q 31 298 31 460 q 31 618 44 669 q 56 720 85 720 l 285 720 q 315 720 334 678 q 352 635 352 528 q 352 420 331 259 z m 290 0 l 73 0 l 67 0 l 59 1 q 45 3 40 17 q 36 31 36 74 q 36 118 43 131 q 50 144 75 146 l 85 147 l 285 147 l 296 146 q 324 146 331 132 q 338 119 338 72 q 338 21 330 10 q 323 0 290 0 z"},"/":{"x_min":0,"x_max":363,"ha":363,"o":"m 141 28 q 126 -14 83 -14 q 70 -14 61 -10 q 19 6 19 52 q 19 62 22 73 l 223 692 q 238 734 282 734 q 292 734 301 731 q 344 717 344 671 q 344 661 341 652 z"},"6":{"x_min":0,"x_max":484,"ha":484,"o":"m 443 59 q 416 0 367 0 l 93 0 q 77 0 60 11 q 49 18 40 29 q 24 47 15 104 q 6 160 6 283 q 6 416 21 470 q 36 523 70 543 q 87 554 109 554 l 255 554 q 244 543 236 527 q 229 511 229 496 q 229 469 244 450 q 259 430 282 425 q 305 420 322 418 q 338 416 379 416 l 401 416 q 433 416 442 355 q 452 294 452 94 q 452 86 451 81 q 450 73 443 59 z m 357 196 q 335 218 304 218 q 275 218 251 196 q 228 171 228 141 q 228 109 250 86 q 272 64 305 64 q 336 64 358 86 q 380 108 380 141 q 380 171 357 196 z"},"r":{"x_min":0,"x_max":410,"ha":410,"o":"m 381 172 q 381 152 378 135 q 372 111 370 99 l 293 99 l 299 110 q 308 127 308 144 q 308 175 287 197 q 266 219 235 219 q 205 219 183 196 q 161 173 161 141 l 161 0 l 56 0 q 33 0 27 16 q 21 31 21 91 q 21 116 21 146 q 21 176 22 210 l 30 418 l 315 418 q 347 418 364 390 q 382 363 382 293 q 382 275 382 257 q 382 239 383 220 q 383 208 383 202 q 383 194 382 186 q 381 177 381 172 z"},"2":{"x_min":0,"x_max":473,"ha":473,"o":"m 388 204 l 341 140 l 420 140 l 424 139 q 437 134 440 127 q 443 120 443 111 l 443 75 l 443 63 l 441 18 l 439 0 l 24 0 l 47 36 l 113 142 q 172 248 172 296 q 172 342 113 353 q 109 354 100 354 q 91 354 86 353 q 41 345 28 302 l 25 344 q 25 476 38 515 q 52 554 100 554 l 371 554 q 410 554 431 531 q 441 519 444 504 q 447 488 447 449 q 447 441 447 437 q 447 429 447 425 q 447 398 446 375 q 446 352 446 332 q 446 321 446 315 q 446 287 430 262 q 426 256 388 204 z"},"9":{"x_min":0,"x_max":484,"ha":484,"o":"m 403 11 q 384 0 364 0 l 218 0 q 230 12 237 28 q 244 43 244 59 q 244 85 228 104 q 213 124 190 129 q 168 134 152 136 q 135 138 95 138 l 72 138 q 40 138 31 200 q 22 263 22 460 q 22 479 30 495 q 58 554 106 554 l 380 554 q 409 554 433 526 q 449 508 458 452 q 467 395 467 271 q 467 138 452 84 q 437 31 403 11 z m 116 468 q 93 445 93 413 q 93 382 116 359 q 139 336 169 336 q 201 336 222 359 q 245 382 245 414 q 245 444 223 467 q 201 490 169 490 q 138 490 116 468 z"}," ":{"x_min":0,"x_max":290,"ha":290,"o":""},"I":{"x_min":0,"x_max":347,"ha":347,"o":"m 318 0 l 34 0 q 26 0 24 38 q 22 76 22 244 l 22 354 q 22 439 24 508 q 30 716 30 720 l 317 720 q 317 607 318 528 q 319 448 321 335 q 323 222 323 177 z"},"H":{"x_min":0,"x_max":634,"ha":634,"o":"m 604 0 l 425 0 l 446 28 q 448 32 452 40 q 453 42 457 54 q 461 66 461 82 q 461 120 434 148 q 407 176 365 176 q 323 176 294 148 q 264 119 264 80 q 264 66 268 54 l 277 32 q 286 15 302 0 l 31 0 q 27 0 25 14 q 23 28 23 76 l 25 568 l 30 720 l 300 720 q 293 715 286 708 q 280 700 276 693 q 268 680 264 668 q 261 657 261 641 q 261 601 290 572 q 318 544 361 544 q 403 544 431 573 q 459 602 459 641 q 459 653 456 666 q 453 679 448 688 q 442 698 439 702 q 432 712 422 720 l 607 720 q 607 540 606 360 q 605 180 604 0 z"},"4":{"x_min":0,"x_max":473,"ha":473,"o":"m 440 18 l 440 14 l 439 10 q 435 0 415 0 l 180 0 l 176 1 q 161 4 161 23 l 161 98 q 161 104 158 112 q 154 120 147 127 q 136 138 120 138 l -1 138 q -9 141 -13 144 q -23 152 -23 164 q -23 182 -6 220 q 10 259 59 355 q 84 404 111 450 q 135 490 157 520 q 174 542 182 548 q 191 554 202 554 l 440 554 q 443 514 445 454 q 447 394 447 289 q 447 275 447 265 q 447 255 447 249 q 447 226 447 215 q 447 98 440 18 z m 360 331 q 339 353 307 353 q 276 353 254 332 q 233 310 233 277 q 233 248 256 225 q 279 204 308 204 q 339 204 360 226 q 370 235 376 250 q 382 264 382 278 q 382 309 360 331 z"},"~":{"x_min":0,"x_max":335,"ha":335,"o":"m 328 567 q 308 472 234 472 q 227 472 217 474 q 207 475 201 476 l 198 477 l 133 494 q 115 499 105 499 q 84 499 79 479 l 78 474 l 4 474 l 6 495 q 14 548 36 571 q 58 594 98 594 q 107 594 118 593 q 129 592 141 589 l 149 587 l 201 573 q 221 568 229 568 q 249 568 255 589 l 256 595 l 331 595 z"},"D":{"x_min":0,"x_max":604,"ha":604,"o":"m 437 0 l 27 0 q 27 180 28 360 q 29 540 30 720 l 454 720 q 535 720 558 658 q 582 595 582 364 q 582 128 556 64 q 529 0 437 0 z m 449 241 q 420 271 378 271 q 339 271 310 242 q 281 213 281 171 q 281 150 288 132 q 295 115 310 101 q 339 73 380 73 q 421 73 450 102 q 478 131 478 172 q 478 212 449 241 z"},"0":{"x_min":0,"x_max":501,"ha":501,"o":"m 361 0 l 104 0 q 56 0 32 41 q 4 90 4 204 q 4 305 26 471 l 32 513 q 39 535 56 544 q 72 554 104 554 l 375 554 q 409 554 424 538 q 440 521 448 475 q 461 404 468 340 q 474 276 474 225 q 474 106 440 49 q 411 0 361 0 z m 356 195 q 334 218 302 218 q 271 218 250 196 q 228 174 228 141 q 228 110 250 87 q 272 64 303 64 q 335 64 357 86 q 379 109 379 141 q 379 172 356 195 z"},"F":{"x_min":0,"x_max":507,"ha":507,"o":"m 485 396 q 476 413 458 430 q 451 437 447 440 q 446 441 433 448 q 413 459 391 459 q 363 459 338 442 q 314 426 302 397 q 295 379 295 359 q 295 328 312 302 q 330 275 359 264 q 331 252 314 225 q 296 198 292 153 l 291 143 l 291 0 l 27 0 q 27 79 26 128 q 22 325 22 345 q 22 407 26 532 q 30 657 30 720 l 417 720 q 460 720 480 682 q 500 645 500 546 q 500 497 497 464 q 494 430 485 396 z"},"`":{"x_min":0,"x_max":272,"ha":272,"o":"m 119 471 l 0 619 l 170 619 l 221 471 z"},"k":{"x_min":0,"x_max":430,"ha":430,"o":"m 241 0 q 228 0 225 10 l 189 83 q 182 96 175 95 q 163 95 163 78 l 163 0 l 27 0 l 23 134 q 23 204 26 344 q 29 484 29 554 l 143 554 q 151 554 159 547 q 164 540 164 527 l 164 459 q 164 442 176 430 q 187 418 204 418 l 379 418 q 395 418 407 403 q 419 388 419 362 q 419 347 412 328 q 406 309 394 284 q 379 254 352 208 l 321 158 l 318 151 q 313 137 324 125 l 430 0 z m 227 350 q 195 350 174 328 q 154 305 154 272 q 154 243 175 223 q 196 203 226 203 q 256 203 279 223 q 302 243 302 277 q 302 306 281 328 q 260 350 227 350 z"},"u":{"x_min":0,"x_max":412,"ha":412,"o":"m 241 0 l 236 42 l 233 36 l 230 29 q 222 15 214 10 q 201 0 193 0 l 87 0 q 45 0 36 60 q 26 119 26 354 l 29 418 l 116 418 l 106 408 q 85 384 85 354 q 85 323 106 302 q 115 292 130 286 q 144 280 158 280 q 187 280 209 302 q 231 324 231 354 q 231 397 199 418 l 386 418 l 386 0 z"},"U":{"x_min":0,"x_max":592,"ha":592,"o":"m 563 0 l 149 0 q 99 0 58 53 q 41 75 34 109 q 26 143 26 220 l 22 407 l 22 426 q 22 469 25 531 q 32 676 32 720 l 151 720 q 121 696 121 652 q 121 645 121 642 q 121 605 152 572 q 179 545 218 545 q 254 545 284 574 q 313 602 313 641 q 313 691 281 720 l 562 720 l 568 550 q 568 423 567 344 q 563 29 563 0 z"},"o":{"x_min":0,"x_max":467,"ha":467,"o":"m 426 56 q 415 25 398 12 q 381 0 350 0 l 100 0 q 66 0 48 16 q 31 33 25 71 q 15 128 11 173 q 7 218 7 256 q 7 344 31 381 q 55 418 98 418 l 363 418 l 376 416 q 418 406 426 360 q 434 313 434 117 q 434 98 432 83 q 429 68 426 56 z m 237 197 q 215 175 215 142 q 215 112 238 89 q 259 66 291 66 q 321 66 344 88 q 366 111 366 144 q 366 175 344 197 q 323 219 291 219 q 259 219 237 197 z"},"N":{"x_min":0,"x_max":627,"ha":627,"o":"m 597 81 l 593 0 l 443 0 q 459 15 468 32 l 477 52 q 481 64 481 80 q 481 119 453 148 q 425 177 383 177 q 341 177 312 148 q 284 120 284 80 q 284 68 289 51 l 298 29 q 305 18 308 13 q 310 11 319 0 l 27 0 q 27 167 30 424 q 32 682 32 720 l 484 720 l 510 717 q 570 703 588 658 q 605 614 605 467 q 602 387 600 287 q 597 187 597 81 z"},"G":{"x_min":0,"x_max":636,"ha":636,"o":"m 590 32 l 587 0 l 130 0 l 108 3 q 50 17 28 84 q 2 162 2 355 q 2 536 22 618 q 38 683 75 707 q 97 720 116 720 l 505 720 q 538 720 564 690 q 585 666 588 636 q 591 605 591 592 q 591 578 591 565 q 591 509 582 460 q 572 410 557 384 q 546 364 534 364 q 517 364 512 370 q 508 376 498 410 q 484 463 410 463 q 369 463 340 433 q 311 403 311 359 l 311 219 q 311 162 327 129 q 343 96 377 82 q 386 78 394 76 q 403 74 414 74 q 450 74 479 99 q 508 124 508 160 q 509 169 509 173 q 509 205 489 233 q 469 261 437 272 q 420 277 408 277 l 501 285 q 516 285 532 286 q 547 287 564 289 q 584 289 589 274 q 594 260 594 205 q 594 198 594 194 q 594 168 594 146 q 593 123 593 103 q 593 93 593 87 z"},"q":{"x_min":0,"x_max":467,"ha":467,"o":"m 439 -130 l 316 -130 q 299 -130 299 -111 l 299 -36 q 299 0 265 0 l 94 0 q 59 0 41 31 q 23 62 23 137 q 23 325 34 372 q 46 418 95 418 l 442 418 q 442 280 441 143 q 440 6 439 -130 z m 217 197 q 196 218 166 218 q 136 218 113 197 q 92 174 92 144 q 92 112 114 90 q 136 68 166 68 q 197 68 218 91 q 239 114 239 144 q 239 175 217 197 z"},"d":{"x_min":0,"x_max":461,"ha":461,"o":"m 432 0 l 99 0 q 70 0 54 16 q 37 32 30 71 q 28 81 28 86 q 25 109 25 129 q 25 332 35 375 q 45 418 101 418 l 270 418 q 301 418 301 450 l 301 538 q 301 554 318 554 l 433 554 q 433 509 436 420 q 439 331 439 286 q 439 229 436 129 q 432 29 432 0 z m 119 190 q 97 166 97 134 q 97 103 119 81 q 128 71 142 65 q 157 59 171 59 q 201 59 223 81 q 245 103 245 137 q 245 167 224 190 q 203 212 171 212 q 140 212 119 190 z"},"1":{"x_min":0,"x_max":472,"ha":472,"o":"m 169 0 q 166 0 168 40 q 169 81 169 147 l 169 161 l 169 252 q 169 275 163 299 q 157 323 137 338 q 117 353 92 353 q 68 353 45 338 q 26 326 16 305 l 12 328 q 12 346 12 366 q 12 386 15 404 l 16 413 q 20 426 30 441 q 41 456 72 492 l 106 531 l 109 534 q 126 554 149 554 l 361 554 l 361 0 z"},"5":{"x_min":0,"x_max":475,"ha":475,"o":"m 366 0 l 82 0 q 20 0 20 111 l 23 136 q 23 129 27 117 q 36 92 56 77 q 77 62 101 62 q 133 62 155 85 q 177 108 174 140 q 174 171 150 192 q 126 213 86 218 l 57 218 l 41 217 l 35 274 q 35 424 36 486 q 38 547 57 554 l 76 554 l 271 554 l 262 543 q 245 519 245 490 q 245 468 257 450 q 269 432 287 426 q 305 419 320 418 q 334 417 382 417 q 396 417 412 409 q 434 397 444 368 q 454 339 454 267 l 454 207 q 454 90 433 45 q 412 0 366 0 z"}}}
